<svg xmlns="http://www.w3.org/2000/svg" viewBox="0 0 66.84 110.09"><defs><style>.cls-1{fill:#f15151;}.cls-2{fill:#b4c8cf;}.cls-3{fill:#9baeb4;}.cls-4{fill:#7d8286;}.cls-5{fill:#74828b;}</style></defs><g id="Layer_2" data-name="Layer 2"><g id="Layer_1-2" data-name="Layer 1"><polygon class="cls-1" points="25.27 86.09 0.42 67.71 0 0 25.27 0 25.27 86.09"/><polygon class="cls-2" points="55.91 110.09 28.5 88.13 28.42 0 55.91 0 55.91 110.09"/><polygon class="cls-3" points="56.33 17.8 61.1 22.23 65.18 34.49 56.38 38.57 56.33 17.8"/><polygon class="cls-4" points="66.84 41.93 63.27 35.29 61.23 36.31 64.8 42.7 66.84 41.93"/><polygon class="cls-4" points="64.29 43.21 60.72 36.57 58.67 37.59 62.25 43.98 64.29 43.21"/><rect class="cls-5" x="56.37" y="53.21" width="7.15" height="7.15" transform="translate(116.73 -3.16) rotate(90)"/><rect class="cls-5" x="56.37" y="63.42" width="7.15" height="7.15" transform="translate(126.94 7.05) rotate(90)"/></g></g></svg>