<svg xmlns="http://www.w3.org/2000/svg" viewBox="0 0 82.45 95.19"><defs><style>.cls-1{fill:#d3993b;}.cls-2{fill:#fbbb49;}.cls-3,.cls-5{fill:#694c36;}.cls-4{fill:#49a634;}.cls-5{opacity:0.3;}</style></defs><g id="Layer_2" data-name="Layer 2"><g id="Layer_1-2" data-name="Layer 1"><path class="cls-1" d="M78.54,55.92a39.25,39.25,0,1,1-.41-5.68A39.27,39.27,0,0,1,78.54,55.92Z"/><ellipse class="cls-2" cx="39.27" cy="50.24" rx="38.86" ry="33.59"/><path class="cls-3" d="M47.87,31.51s8.4,7.59-2.94,20.31c0,0-3.84,6.37-9.3,0,0,0,10-11.82,6.82-23.5Z"/><path class="cls-4" d="M82.45,34.37S66.26,13.9,42.45,23C42.45,23,42.93,41.52,82.45,34.37Z"/><path class="cls-4" d="M8.73,53.88S39.84,55,50.05,26.43C50.05,26.43,32.83,12.49,8.73,53.88Z"/><path class="cls-4" d="M68.36,0S45.05.93,39.07,22.89C39.07,22.89,52.74,32.31,68.36,0Z"/><path class="cls-4" d="M8.32,17.34s16.27,16.72,36.61,6.49C44.93,23.83,42.8,7.37,8.32,17.34Z"/><polygon class="cls-5" points="53.72 67.5 44.93 51.82 35.63 51.82 53.72 67.5"/></g></g></svg>