<svg xmlns="http://www.w3.org/2000/svg" viewBox="0 0 68.57 118.96"><defs><style>.cls-1{fill:#f15151;}.cls-2{fill:#74828b;}.cls-3{fill:#b4c8cf;}.cls-4{fill:#9baeb4;}.cls-5{fill:#7d8286;}</style></defs><g id="Layer_2" data-name="Layer 2"><g id="Layer_1-2" data-name="Layer 1"><polygon class="cls-1" points="27.58 96.49 0.21 78.88 0 72.17 3.32 68.81 6.98 65.1 13.11 58.9 13.11 29.28 6.3 28.26 6.3 21.11 13.79 20.77 13.79 9.53 27.58 7.66 27.58 96.49"/><path class="cls-2" d="M9.92,42.09v6.47l-3.2,3.19H3.79l-3-3V42.09L5,46.31S10.26,41.75,9.92,42.09Z"/><polygon class="cls-2" points="6.98 65.19 6.98 50.64 3.32 50.64 3.32 68.94 6.98 65.19"/><polygon class="cls-3" points="58.22 118.96 30.4 97.77 30.3 6.81 58.22 0 58.22 118.96"/><rect class="cls-2" x="35.23" y="13.87" width="7.15" height="7.15" transform="translate(56.26 -21.36) rotate(90)"/><rect class="cls-2" x="35.23" y="24.09" width="7.15" height="7.15" transform="translate(66.47 -11.15) rotate(90)"/><rect class="cls-2" x="35.23" y="34.89" width="7.15" height="7.15" transform="translate(77.27 -0.35) rotate(90)"/><rect class="cls-2" x="35.23" y="45.1" width="7.15" height="7.15" transform="translate(87.48 9.87) rotate(90)"/><polygon class="cls-4" points="58.06 5.51 62.83 9.94 66.92 22.19 58.11 26.28 58.06 5.51"/><polygon class="cls-5" points="68.57 29.64 65 23 62.96 24.02 66.53 30.4 68.57 29.64"/><polygon class="cls-5" points="66.02 30.91 62.45 24.28 60.4 25.3 63.98 31.68 66.02 30.91"/><polygon class="cls-4" points="57.93 42.28 62.7 46.7 66.78 58.96 57.98 63.05 57.93 42.28"/><polygon class="cls-5" points="68.44 66.41 64.87 59.77 62.83 60.79 66.4 67.17 68.44 66.41"/><polygon class="cls-5" points="65.89 67.68 62.31 61.05 60.27 62.07 63.85 68.45 65.89 67.68"/><rect class="cls-2" x="57.97" y="77.68" width="7.15" height="7.15" transform="translate(142.8 19.71) rotate(90)"/><rect class="cls-2" x="57.97" y="87.9" width="7.15" height="7.15" transform="translate(153.01 29.93) rotate(90)"/></g></g></svg>