<svg xmlns="http://www.w3.org/2000/svg" viewBox="0 0 118.96 68.57"><defs><style>.cls-1{fill:#f15151;}.cls-2{fill:#74828b;}.cls-3{fill:#b4c8cf;}.cls-4{fill:#9baeb4;}.cls-5{fill:#7d8286;}</style></defs><g id="Layer_2" data-name="Layer 2"><g id="Layer_1-2" data-name="Layer 1"><polygon class="cls-1" points="96.49 40.99 78.88 68.36 72.17 68.57 68.81 65.25 65.1 61.59 58.9 55.46 29.28 55.46 28.26 62.27 21.11 62.27 20.77 54.78 9.53 54.78 7.66 40.99 96.49 40.99"/><path class="cls-2" d="M42.09,58.66h6.47l3.19,3.19v2.94l-3,3H42.09l4.22-4.23S41.75,58.32,42.09,58.66Z"/><polygon class="cls-2" points="65.19 61.59 50.64 61.59 50.64 65.25 68.94 65.25 65.19 61.59"/><polygon class="cls-3" points="118.96 10.35 97.77 38.17 6.81 38.27 0 10.35 118.96 10.35"/><rect class="cls-2" x="13.87" y="26.19" width="7.15" height="7.15"/><rect class="cls-2" x="24.09" y="26.19" width="7.15" height="7.15"/><rect class="cls-2" x="34.89" y="26.19" width="7.15" height="7.15"/><rect class="cls-2" x="45.1" y="26.19" width="7.15" height="7.15"/><polygon class="cls-4" points="5.51 10.51 9.94 5.75 22.19 1.66 26.28 10.47 5.51 10.51"/><polygon class="cls-5" points="29.64 0 23 3.57 24.02 5.62 30.4 2.04 29.64 0"/><polygon class="cls-5" points="30.91 2.55 24.28 6.13 25.3 8.17 31.68 4.6 30.91 2.55"/><polygon class="cls-4" points="42.28 10.64 46.7 5.88 58.96 1.79 63.05 10.6 42.28 10.64"/><polygon class="cls-5" points="66.41 0.13 59.77 3.71 60.79 5.75 67.17 2.17 66.41 0.13"/><polygon class="cls-5" points="67.68 2.68 61.05 6.26 62.07 8.3 68.45 4.73 67.68 2.68"/><rect class="cls-2" x="77.68" y="3.46" width="7.15" height="7.15"/><rect class="cls-2" x="87.9" y="3.46" width="7.15" height="7.15"/></g></g></svg>