<svg xmlns="http://www.w3.org/2000/svg" viewBox="0 0 237.6 56.2"><g id="Layer_2" data-name="Layer 2"><g id="Layer_1-2" data-name="Layer 1"><path d="M151.33,2.12c1.79.92,4.26.71,2.16,4.45-1.48,2.65-.29,6.8-.29,10.38,3.28,1.08,4.64.19,4.45-3.32a53.6,53.6,0,0,1,.6-11.78v15.4c4.07,0,7.84-.1,11.6,0s6.52,1.32,8.23,5.23c.73,1.65,3.69,3.13,5.73,3.28,13.91,1,27.84,1.56,41.76,2.46a15.63,15.63,0,0,1,6.1,2c6.81,3.66,8.19,13.1,1.86,17.42-4.6,3.13-10.52,6-15.91,6-42.46.83-85,1.6-127.42,1-18.39-.24-36.75-3.54-55.09-5.69-4.12-.49-7-.11-8.93,4.1C24,58,19.61,55.49,15.51,55.92c-.22-3.32-.42-6.38-.66-10-4.43.69-8.81-4.25-13.18.68-2.39-2.31-2.07-4.89.05-7.49,4.14,5,8.65,0,13.36,1.18V24.33c7-1.84,7.68-1.53,10.89,4.48,4.48,8.39,4.44,8.15,13.91,6.76,30.76-4.52,61.5-9.35,92.76-8.83,1.61,0,3.28-1,4.84-1.8,1.19-.57,2.14-1.85,3.35-2.12,9.21-2,9.66-8.71,8.87-16.19-.2-1.94,0-3.91,0-6.63l1.77,2.2-1.26,15.36,2.7,0Z"/></g></g></svg>