<svg xmlns="http://www.w3.org/2000/svg" viewBox="0 0 96.26 76.29"><defs><style>.cls-1{fill:#275bff;}</style></defs><g id="Layer_2" data-name="Layer 2"><g id="Layer_1-2" data-name="Layer 1"><path class="cls-1" d="M96.26,31.08V.46H74.8C26.23.46,6.18,27.17,1.28,35.17L0,37.36,1.28,39.9C6,48.24,24.93,74.69,74.8,74.69H96.26V43.43a8.19,8.19,0,0,1,0-12.35ZM75.84,45.45a8.2,8.2,0,1,1,8.2-8.2A8.2,8.2,0,0,1,75.84,45.45Z"/><path class="cls-1" d="M27.84,7.94S25.58-1.09,9.76.11v19A37.88,37.88,0,0,1,27.84,7.94Z"/><path class="cls-1" d="M27.84,68.35s-2.26,9-18.08,7.83v-19A37.8,37.8,0,0,0,27.84,68.35Z"/></g></g></svg>